<?xml version="1.0" standalone="no"?>
<!DOCTYPE svg PUBLIC "-//W3C//DTD SVG 20010904//EN"
 "http://www.w3.org/TR/2001/REC-SVG-20010904/DTD/svg10.dtd">
<svg version="1.0" xmlns="http://www.w3.org/2000/svg"
 width="2000.000000pt" height="2000.000000pt" viewBox="0 0 2000.000000 2000.000000"
 preserveAspectRatio="xMidYMid meet">
<metadata>
Created by potrace 1.15, written by Peter Selinger 2001-2017
</metadata>
<g transform="translate(0.000000,2000.000000) scale(0.100000,-0.100000)"
fill="#000000" stroke="none">
<path d="M9570 19429 c-1430 -62 -2848 -456 -4088 -1136 -1472 -806 -2723
-2008 -3584 -3443 -1067 -1777 -1514 -3868 -1273 -5955 211 -1817 943 -3525
2115 -4930 252 -302 668 -734 955 -991 1977 -1772 4558 -2620 7210 -2369 2460
234 4735 1435 6336 3345 604 721 1112 1557 1475 2428 178 425 317 845 434
1304 345 1358 381 2798 104 4188 -471 2367 -1847 4465 -3849 5872 -1692 1189
-3734 1779 -5835 1687z m995 -469 c1918 -123 3687 -824 5160 -2044 307 -255
733 -666 986 -952 818 -926 1423 -1968 1805 -3111 614 -1840 614 -3874 -3
-5712 -301 -900 -753 -1761 -1321 -2516 -490 -651 -1098 -1266 -1737 -1756
-1316 -1010 -2880 -1631 -4525 -1798 -633 -64 -1227 -64 -1860 0 -1756 178
-3424 877 -4785 2005 -445 369 -910 838 -1271 1285 -865 1068 -1470 2314
-1770 3647 -331 1471 -289 3016 121 4447 157 546 318 964 569 1480 1052 2154
2935 3809 5201 4573 836 282 1663 431 2590 466 149 6 669 -3 840 -14z"/>
<path d="M9685 17163 c-314 -19 -568 -47 -843 -94 -1460 -248 -2828 -968
-3877 -2040 -1196 -1223 -1907 -2785 -2045 -4489 -135 -1682 323 -3366 1289
-4735 863 -1223 2052 -2133 3447 -2636 549 -197 1089 -317 1739 -385 238 -25
886 -30 1160 -10 1109 83 2132 398 3070 946 1457 850 2573 2189 3150 3780 207
571 333 1139 401 1800 21 211 30 829 15 1075 -70 1151 -383 2209 -944 3190
-569 995 -1391 1860 -2352 2477 -1045 670 -2187 1041 -3435 1118 -148 9 -647
11 -775 3z m705 -158 c310 -11 695 -59 1046 -130 215 -44 578 -136 616 -156
19 -10 19 -26 16 -512 l-3 -502 -33 -67 c-37 -76 -82 -120 -162 -157 l-55 -26
-1930 0 -1930 0 -56 26 c-106 50 -170 135 -189 250 -15 97 -13 864 3 877 6 5
91 35 187 67 551 178 1133 290 1701 325 290 18 403 19 789 5z m4017 -1527
c212 -171 369 -312 583 -527 688 -690 1218 -1504 1575 -2416 51 -130 153 -425
179 -521 5 -18 -39 -51 -336 -255 -189 -129 -364 -245 -390 -258 -113 -56
-258 -32 -350 58 -55 54 -2138 3098 -2175 3178 -50 108 -27 245 55 333 41 44
702 508 725 510 4 0 65 -46 134 -102z m-8498 -453 c254 -171 419 -288 435
-310 75 -97 91 -223 44 -325 -37 -80 -2090 -3137 -2144 -3192 -84 -86 -232
-116 -338 -69 -38 16 -627 402 -660 431 -10 10 18 131 84 362 321 1132 941
2185 1779 3027 197 198 364 351 381 351 6 0 195 -124 419 -275z m4726 -864
c833 -113 1540 -424 2190 -962 117 -98 379 -356 490 -484 236 -273 436 -577
605 -920 279 -566 421 -1118 449 -1751 24 -537 -47 -1067 -211 -1574 -122
-377 -329 -795 -556 -1124 -264 -383 -620 -753 -977 -1016 -954 -704 -2104
-975 -3265 -769 -623 111 -1243 381 -1763 770 -893 668 -1490 1642 -1685 2749
-52 293 -72 615 -60 952 50 1405 786 2706 1968 3481 538 352 1165 579 1800
651 207 24 205 24 545 21 253 -3 351 -8 470 -24z m5634 -5250 c74 -28 621
-400 621 -422 0 -31 -67 -307 -119 -491 -275 -964 -768 -1874 -1440 -2658 -63
-74 -226 -246 -361 -382 l-246 -248 -426 285 c-518 346 -523 351 -523 525 0
84 3 102 26 145 14 28 493 745 1063 1595 685 1021 1052 1559 1081 1587 85 78
218 105 324 64z m-12007 -312 c63 -14 122 -46 164 -91 50 -52 2134 -3105 2162
-3167 54 -116 24 -262 -70 -352 -24 -22 -214 -157 -422 -299 l-379 -259 -51
40 c-239 190 -664 600 -882 854 -512 595 -899 1223 -1209 1965 -72 172 -195
529 -261 762 -4 12 82 75 353 261 387 264 404 274 466 287 60 11 70 11 129 -1z
m7919 -4187 c71 -29 143 -98 177 -170 l27 -57 0 -435 0 -434 -50 -19 c-193
-72 -609 -186 -880 -241 -990 -202 -2016 -188 -2990 39 -166 39 -400 103 -427
117 -17 8 -18 40 -18 446 0 240 4 463 10 496 24 148 129 255 273 276 29 4 900
7 1937 6 l1885 -1 56 -23z"/>
<path d="M9948 13508 c-126 -190 -328 -428 -524 -618 -241 -234 -481 -431
-994 -820 -548 -416 -785 -613 -985 -822 -440 -458 -610 -853 -632 -1468 -17
-473 106 -851 364 -1121 274 -287 657 -435 1178 -455 254 -10 516 24 710 93
101 36 269 125 350 186 95 71 211 189 270 276 27 40 51 67 53 61 9 -26 -35
-500 -69 -745 -134 -983 -487 -1417 -1336 -1645 l-108 -28 1785 -1 1785 0
-129 35 c-549 148 -892 401 -1090 807 -151 310 -227 674 -285 1377 -10 118
-17 216 -16 217 1 2 26 -32 55 -75 68 -97 193 -222 290 -291 86 -61 234 -137
335 -174 381 -136 974 -125 1380 27 470 175 751 514 847 1021 19 102 22 153
22 340 0 229 -13 365 -55 569 -82 394 -328 779 -738 1154 -202 184 -343 298
-841 676 -525 399 -725 564 -974 806 -213 208 -440 477 -548 650 -17 28 -34
50 -38 50 -4 0 -32 -37 -62 -82z"/>
</g>
</svg>
